#N canvas 895 175 671 524 10;
#X obj 323 175 line~;
#X obj 202 231 *~;
#X obj 323 145 tgl 15 0 empty empty empty 17 7 0 10 -262144 -1 -1 1
1;
#X obj 340 119 delay 100;
#X obj 190 29 bng 15 250 50 0 empty empty empty 17 7 0 10 -262144 -1
-1;
#X msg 366 182 85;
#X obj 185 156 osc~;
#X floatatom 185 130 5 0 0 0 - - -;
#X obj 185 110 + 700;
#X obj 185 89 random 1000;
#X obj 200 433 dac~;
#X obj 207 295 *~ 0;
#X floatatom 50 275 0 0 0 0 - - -;
#X obj 38 242 dbtorms;
#X floatatom 37 209 0 0 100 0 - - -;
#X obj 170 292 *~ 0;
#X obj 322 84 delay 100;
#X obj 86 114 s sonar;
#X obj 78 56 delay;
#X obj 78 -24 loadbang;
#X obj 60 -24 bng 15 250 50 0 empty empty empty 17 7 0 10 -262144 -1
-1;
#X obj 78 -4 t b b;
#X obj 105 16 random 1500;
#X obj 105 36 + 5000;
#X obj 42 181 94;
#X obj 184 61 metro 1000;
#X obj 178 350 freeverb~;
#X obj 272 264 bng 15 250 50 0 empty empty empty 17 7 0 10 -262144
-1 -1;
#X msg 261 292 dry 0.3;
#X obj 420 196 bng 15 250 50 0 empty empty empty 17 7 0 10 -262144
-1 -1;
#X connect 0 0 1 1;
#X connect 1 0 15 0;
#X connect 1 0 11 0;
#X connect 2 0 0 0;
#X connect 2 0 5 0;
#X connect 3 0 2 0;
#X connect 4 0 25 0;
#X connect 6 0 1 0;
#X connect 7 0 6 0;
#X connect 8 0 7 0;
#X connect 9 0 8 0;
#X connect 11 0 26 1;
#X connect 13 0 11 1;
#X connect 13 0 12 0;
#X connect 13 0 15 1;
#X connect 14 0 13 0;
#X connect 15 0 26 0;
#X connect 16 0 2 0;
#X connect 16 0 3 0;
#X connect 18 0 25 0;
#X connect 19 0 21 0;
#X connect 19 0 24 0;
#X connect 19 0 25 0;
#X connect 19 0 28 0;
#X connect 20 0 21 0;
#X connect 21 0 18 0;
#X connect 21 1 22 0;
#X connect 22 0 23 0;
#X connect 23 0 18 1;
#X connect 24 0 14 0;
#X connect 25 0 9 0;
#X connect 25 0 16 0;
#X connect 25 0 17 0;
#X connect 26 0 10 0;
#X connect 26 1 10 1;
#X connect 27 0 28 0;
#X connect 28 0 26 0;
